<?xml version="1.0" standalone="no"?><!DOCTYPE svg PUBLIC "-//W3C//DTD SVG 1.1//EN" "http://www.w3.org/Graphics/SVG/1.1/DTD/svg11.dtd"><svg t="1590925400415" class="icon" viewBox="0 0 1024 1024" version="1.1" xmlns="http://www.w3.org/2000/svg" p-id="2624" xmlns:xlink="http://www.w3.org/1999/xlink" width="200" height="200"><defs><style type="text/css"></style></defs><path d="M948.656523 168.344103c-35.130102-3.467985-54.701856-9.414417-82.845847-17.986653l-0.064468 0.236384c-1.416256-1.858324-3.170203-3.400446-5.1503-4.558829-8.573259-30.818913-14.262842-66.593697-17.181311-82.734306l-35.229362 0c2.515287 26.989701 7.240915 50.089815 14.222933 75.641771-123.619482-28.355815-229.950206-8.021697-295.760051 57.744145-66.732867 66.685795-85.126796 170.803107-52.743248 294.724465-119.097492-27.052123-217.276558-8.497535-279.482319 53.753251-62.560848 62.515822-80.988546 161.405063-53.345975 281.277198-24.269753-6.449899-47.714721-11.036357-70.278623-13.862729l0 35.328623c25.564235 3.510964 52.362578 9.442046 80.444147 17.984606l-0.075725 0.248663c0.191358 0.058328 0.38067 0.110517 0.572028 0.168846 0.058328 0.192382 0.112564 0.381693 0.170892 0.575098l0.309038-0.095167c9.825786 32.330336 16.247033 62.983473 19.412119 91.908246l35.229362 0c-2.599198-26.027793-7.653307-53.315276-15.232936-81.727373 36.189224 8.345062 70.451562 12.507872 102.33983 12.507872 73.877591 0 135.218658-22.197558 178.920996-65.800635 62.20576-62.20576 80.793094-160.462598 53.753251-279.503808 39.806611 10.385535 77.577866 15.556301 112.730481 15.556301 74.224492 0 136.705522-23.040762 181.993984-68.328201 66.735937-66.73696 86.727247-175.243233 56.499805-301.239855 22.672372 6.30152 43.812855 10.781554 70.791299 13.558807L948.656523 168.344103zM838.723761 179.264826c13.121855 47.110971 18.932188 91.563392 17.600867 131.902122L706.912713 161.716148C747.232001 160.380734 791.654746 166.172647 838.723761 179.264826zM851.569324 356.113627c-4.507664 24.37106-12.085246 46.711881-22.692838 66.597791L595.323219 189.20113c19.897166-10.623965 42.259476-18.21178 66.657142-22.726607L851.569324 356.113627zM495.779062 348.950484l-0.950651 0.950651c2.240017-23.061228 7.216355-44.49233 14.903431-64.043618L732.199633 508.370333c-19.039635 7.480368-39.868009 12.388145-62.248739 14.703887L495.779062 348.950484zM487.16794 530.862603c11.440563 42.48972 16.884552 82.081437 16.433274 117.992321l-134.38671-134.421502C405.107993 513.979074 444.68129 519.42204 487.16794 530.862603zM499.522316 694.427866c-4.097318 23.469528-11.251252 44.835138-21.423939 63.806211L259.822049 539.956725c18.99154-10.18906 40.377616-17.352203 63.871703-21.451568L499.522316 694.427866zM164.885839 696.53076c1.951445-21.73707 6.271844-41.916668 12.93766-60.344367l204.006324 204.049303c-20.534685 7.430226-43.242873 11.95017-67.849294 13.521968l4.066619-4.066619L164.885839 696.53076zM272.429181 853.720825c-28.827559-1.76111-59.711963-7.009647-92.296079-15.790638-8.768711-32.585139-14.014178-63.463404-15.778358-92.2838L272.429181 853.720825zM415.530366 824.246537l-221.750453-221.702358c7.196912-11.914354 15.666818-22.796192 25.416879-32.555463 3.52222-3.518127 7.194866-6.866385 11.003612-10.053983l227.919966 227.919966c-3.173273 3.791349-6.505158 7.445576-10.007935 10.951423C438.346001 808.564369 427.45393 817.042461 415.530366 824.246537zM515.873726 503.541351l0.270153-0.889253c-0.196475-0.059352-0.390903-0.116657-0.588401-0.174985-0.052189-0.173962-0.101307-0.345877-0.153496-0.518816l-0.783853 0.23843c-0.443092-0.13303-0.88209-0.264013-1.323135-0.397043-11.200086-37.162388-17.633612-72.365144-19.363-105.059777l127.483486 127.411855c-32.721239-1.723248-67.958788-8.150634-105.163131-19.343557C516.125459 504.385579 516.001639 503.962953 515.873726 503.541351zM765.214561 491.688395 526.38001 252.902964c7.197936-11.368932 15.564487-21.856797 25.092491-31.391964 4.427846-4.427846 9.090029-8.604982 13.963013-12.548804l243.693208 243.648183c-3.954055 4.892427-8.144494 9.574053-12.586666 14.019295C787.027355 476.144374 776.559956 484.500693 765.214561 491.688395z" p-id="2625"></path></svg>