<?xml version="1.0" standalone="no"?><!DOCTYPE svg PUBLIC "-//W3C//DTD SVG 1.1//EN" "http://www.w3.org/Graphics/SVG/1.1/DTD/svg11.dtd"><svg t="1589605456291" class="icon" viewBox="0 0 1024 1024" version="1.1" xmlns="http://www.w3.org/2000/svg" p-id="4995" xmlns:xlink="http://www.w3.org/1999/xlink" width="200" height="200"><defs><style type="text/css"></style></defs><path d="M512.001023 907.277602c-18.681478 0-36.187177-7.312546-49.294706-20.581758L140.432403 560.748261C83.407642 503.05835 56.877405 423.303912 67.641563 341.93879c10.670014-80.700997 57.527205-150.756539 128.563074-192.210674 99.467409-58.090023 228.839919-38.053688 314.611398 48.689933l1.184988 1.201361 1.175779-1.201361c85.797062-86.726224 215.153198-106.736976 314.628794-48.680723 71.010287 41.444924 117.884874 111.509676 128.554888 192.21886 10.755971 81.356936-15.767102 161.103188-72.782654 218.783888l-0.017396 0.008187-322.290287 325.963956c-13.090133 13.252839-30.595832 20.565385-49.269124 20.565385zM319.398424 186.537464c-30.621415 0-60.902068 7.670703-88.004333 23.487947-52.260248 30.502711-86.717014 81.910545-94.541213 141.065829-7.909134 59.820434 11.488659 118.344339 53.232388 160.574139l322.290287 325.95577 321.549414-325.963957-0.017396 0.008187c41.74373-42.2298 61.141522-100.745519 53.232388-160.557766-7.824199-59.163471-42.271756-110.580514-94.533027-141.075039-71.947636-41.98216-166.42131-26.608008-229.77829 37.473473l-26.00221 26.301016c-13.116739 13.261025-36.527938 13.261025-49.643654 0l-26.01142-26.301016c-39.48427-39.934524-91.080391-60.968583-141.772934-60.968583z m539.344788 349.665774h0.170892-0.170892z" fill="#444444" p-id="4996"></path><path d="M800.227494 605.63661c-9.630335 0-19.209504-3.954055-26.113751-11.718902l-286.410102-322.239122c-12.809747-14.411221-11.514241-36.476773 2.898003-49.27731 14.394848-12.817933 36.476773-11.522428 49.27731 2.898003l286.427498 322.239122c12.800537 14.411221 11.505032 36.476773-2.898003 49.27731a34.794457 34.794457 0 0 1-23.180955 8.820899z" fill="#444444" p-id="4997"></path><path d="M307.916928 400.657122m-71.606874 0a71.606875 71.606875 0 1 0 143.213749 0 71.606875 71.606875 0 1 0-143.213749 0Z" fill="#00D8A0" p-id="4998"></path><path d="M397.425521 525.969153m-35.803437 0a35.803437 35.803437 0 1 0 71.606875 0 35.803437 35.803437 0 1 0-71.606875 0Z" fill="#00D8A0" p-id="4999"></path></svg>